<?xml version="1.0" encoding="utf-8"?>
<svg id="master-artboard" viewBox="0 0 1400 980" version="1.1" xmlns="http://www.w3.org/2000/svg" x="0px" y="0px" style="enable-background:new 0 0 1400 980;" width="1400px" height="980px"><rect id="ee-background" x="0" y="0" width="1400" height="980" style="fill: white; fill-opacity: 1; pointer-events: none;"/>


<g transform="matrix(5.157894736842105, 0, 0, 5.157894736842105, 161.00000452967515, 0.000004529675152298296)"><g>
  <title>background</title>
  <path d="M -1 -1 H 801 V 601 H -1 V -1 Z" fill="none" id="canvas_background"/>
 </g><g>
  <title>Layer 1</title>
  <path id="svg_1" fill="#202024" d="m194.5,0l-180,0c-2.7614,0 -5,2.23858 -5,5l0,180c0,2.761 2.2386,5 5,5l180,0c2.761,0 5,-2.239 5,-5l0,-180c0,-2.76142 -2.239,-5 -5,-5z"/>
  <path id="svg_2" fill="white" d="m138.236,52.996c0,2.8627 1.187,4.2909 3.559,4.2909c1.428,0 2.99,-0.4527 4.687,-1.358l2.149,6.21c-2.596,1.39 -5.044,2.0913 -7.34,2.0913c-3.348,0 -5.937,-0.9245 -7.767,-2.7671c-1.824,-1.8426 -2.736,-4.4822 -2.736,-7.9061l0,-12.2479l-6.045,0l0,-6.0953l6.045,0l0,-10.2205l7.455,-2.2571l0,12.4776l10.898,0l0,6.0953l-10.898,0l0,11.6869l-0.007,0zm-48.5972,-2.0913l-21.458,0c0.3763,1.9956 1.2116,3.5832 2.5125,4.7691c1.3009,1.1859 2.8122,1.7789 4.5467,1.7789c3.2011,0 5.535,-1.2433 7.0017,-3.7299l6.6638,1.4091c-1.2052,2.8627 -2.9908,5.0241 -5.3629,6.4969c-2.3722,1.4665 -5.1397,2.1997 -8.3026,2.1997c-4.0684,0 -7.4928,-1.3899 -10.2794,-4.1762c-2.7867,-2.7862 -4.1769,-6.3631 -4.1769,-10.7305c0,-4.3675 1.4029,-7.9507 4.2087,-10.756c2.8058,-2.8054 6.2621,-4.2081 10.3624,-4.2081c3.8388,0 7.142,1.3453 9.9095,4.0359c2.7676,2.6906 4.2278,6.1463 4.3745,10.3607l0,2.5504zm-18.6075,-9.092c-1.3392,0.9054 -2.2128,2.1806 -2.6273,3.8383l13.6081,0c-0.4527,-1.7342 -1.2817,-3.0285 -2.4869,-3.8956c-1.2052,-0.8672 -2.5954,-1.3007 -4.1768,-1.3007c-1.5432,0 -2.978,0.4527 -4.3171,1.358zm-17.1409,-3.6979c2.0724,2.1996 3.1055,5.056 3.1055,8.5563l0,17.1638l-7.4545,0l0,-15.5889c0,-1.9957 -0.5165,-3.596 -1.556,-4.801c-1.033,-1.2051 -2.4168,-1.8044 -4.1513,-1.8044c-4.6678,0 -7.0017,3.2389 -7.0017,9.7104l0,12.4775l-7.4545,0l0,-28.1748l7.4545,0l0,2.5439c2.2574,-2.257 5.2162,-3.3855 8.8638,-3.3855c3.3924,-0.0064 6.1217,1.0966 8.1942,3.3027zm59.1326,25.7201l8.863,0l-10.049,-13.7208l10.049,-14.454l-8.863,0l-6.722,9.7104l-6.6633,-9.7104l-8.8638,0l10.0501,14.454l-10.0501,13.7208l8.8638,0l6.6633,-9.2067l6.722,9.2067zm-65.523,9.3406l0,40.3015l7.4545,0l0,-40.3015l-7.4545,0zm40.8307,27.3715l-21.458,0c0.3762,1.996 1.2116,3.583 2.5125,4.769c1.3008,1.186 2.8121,1.779 4.5466,1.779c3.2012,0 5.5351,-1.243 7.0018,-3.73l6.6637,1.409c-1.2052,2.863 -2.9907,5.024 -5.3629,6.497c-2.3721,1.467 -5.1397,2.2 -8.3026,2.2c-4.0684,0 -7.4927,-1.39 -10.2794,-4.176c-2.7867,-2.787 -4.1768,-6.363 -4.1768,-10.7309c0,-4.3675 1.4029,-7.9507 4.2087,-10.756c2.8058,-2.8054 6.262,-4.2081 10.3623,-4.2081c3.8388,0 7.142,1.3453 9.9096,4.0359c2.7675,2.6906 4.2278,6.1463 4.3745,10.3607l0,2.5504zm-18.6076,-9.092c-1.3391,0.9054 -2.2127,2.1806 -2.6272,3.8383l13.6081,0c-0.4528,-1.7342 -1.2817,-3.0285 -2.487,-3.8956c-1.2052,-0.8672 -2.5953,-1.3007 -4.1768,-1.3007c-1.5368,0.0064 -2.9779,0.459 -4.3171,1.358zm18.8947,-6.21l12.9322,28.232l5.535,0l12.932,-28.232l-7.964,0l-7.736,17.393l-7.7346,-17.393l-7.9646,0zm60.5412,15.302l-21.458,0c0.376,1.996 1.212,3.583 2.513,4.769c1.301,1.186 2.812,1.779 4.546,1.779c3.201,0 5.535,-1.243 7.002,-3.73l6.664,1.409c-1.205,2.863 -2.991,5.024 -5.363,6.497c-2.372,1.467 -5.14,2.2 -8.303,2.2c-4.068,0 -7.492,-1.39 -10.279,-4.176c-2.787,-2.787 -4.177,-6.363 -4.177,-10.7309c0,-4.3675 1.403,-7.9507 4.209,-10.756c2.806,-2.8054 6.262,-4.2081 10.362,-4.2081c3.839,0 7.142,1.3453 9.91,4.0359c2.767,2.6906 4.227,6.1463 4.374,10.3607l0,2.5504zm-18.607,-9.092c-1.34,0.9054 -2.213,2.1806 -2.628,3.8383l13.608,0c-0.452,-1.7342 -1.281,-3.0285 -2.486,-3.8956c-1.206,-0.8672 -2.596,-1.3007 -4.177,-1.3007c-1.543,0.0064 -2.985,0.459 -4.317,1.358zm23.128,-18.2795l0,40.3015l7.455,0l0,-40.3015l-7.455,0zm-90.9641,87.1005l-6.2174,0l-6.0962,-16.603l-6.1537,16.603l-6.211,0l-10.4516,-28.232l7.9647,0l5.873,16.883l6.0452,-16.883l5.8157,0l6.0452,16.94l5.873,-16.94l7.9647,0l-10.4516,28.232zm18.6968,-12.93l21.4583,0l0,-2.551c-0.147,-4.214 -1.607,-7.67 -4.3748,-10.36c-2.7675,-2.691 -6.0707,-4.036 -9.9095,-4.036c-4.1003,0 -7.5566,1.402 -10.3624,4.208c-2.8058,2.805 -4.2087,6.388 -4.2087,10.756c0,4.367 1.3902,7.944 4.1768,10.73c2.7867,2.787 6.2111,4.176 10.2795,4.176c3.1629,0 5.9304,-0.733 8.3026,-2.199c2.3722,-1.473 4.1575,-3.634 5.3625,-6.497l-6.6634,-1.409c-1.4666,2.486 -3.8006,3.73 -7.0017,3.73c-1.7345,0 -3.2458,-0.593 -4.5467,-1.779c-1.3009,-1.186 -2.1362,-2.774 -2.5125,-4.769zm0.2232,-5.254c0.4145,-1.658 1.2881,-2.933 2.6273,-3.838c1.3327,-0.899 2.7739,-1.352 4.3171,-1.358c1.5814,0 2.9716,0.433 4.1768,1.3c1.2052,0.867 2.0342,2.162 2.4869,3.896l-13.6081,0zm52.3531,5.254l-21.457,0c0.376,1.995 1.211,3.583 2.512,4.769c1.301,1.186 2.812,1.779 4.547,1.779c3.201,0 5.535,-1.244 7.001,-3.73l6.664,1.409c-1.205,2.863 -2.991,5.024 -5.363,6.497c-2.372,1.466 -5.139,2.199 -8.302,2.199c-4.069,0 -7.493,-1.389 -10.28,-4.176c-2.786,-2.786 -4.177,-6.363 -4.177,-10.73c0,-4.368 1.403,-7.951 4.209,-10.756c2.806,-2.806 6.262,-4.208 10.362,-4.208c3.839,0 7.142,1.345 9.91,4.036c2.768,2.69 4.228,6.146 4.374,10.36l0,2.551zm-18.607,-9.092c-1.339,0.905 -2.213,2.18 -2.627,3.838l13.608,0c-0.453,-1.734 -1.282,-3.029 -2.487,-3.896c-1.205,-0.867 -2.595,-1.3 -4.177,-1.3c-1.543,0.006 -2.984,0.459 -4.317,1.358zm29.225,22.022l0,-10.673l11.3,10.666l10.164,0l-14.686,-14.116l13.609,-14.058l-9.432,0l-10.955,11.068l0,-23.214l-7.455,0l0,40.327l7.455,0z" clip-rule="evenodd" fill-rule="evenodd"/>
  <path id="svg_3" fill="#7159C1" d="m21.4006,45.1537l0,-7.7339l-21.3582,7.9477l-0.0424,-0.0162l0,0.0319l0,7.8742l0,0.0319l0.04241,-0.0161l21.35819,7.9476l0,-7.7339l-10.9602,-4.1666l10.9602,-4.1666zm166.1924,116.5503l0,-7.734l10.952,-4.163l-10.952,-4.164l0,-7.734l21.35,7.945l0.051,-0.019l0,0.038l0,7.868l0,0.038l-0.051,-0.019l-21.35,7.944zm-21.343,-51.266l0,6.152l23.728,0l0,-6.152l-23.728,0zm-146.0625,7.34l0,-6.153l23.7281,0l0,6.153l-23.7281,0zm158.2355,9.19l-12.556,40.302l7.455,0l12.556,-40.302l-7.455,0z" clip-rule="evenodd" fill-rule="evenodd"/>
  <path d="M 178 37 H 204 A 5 5 0 0 1 209 42 V 54.5 A 5 5 0 0 1 204 59.5 H 178 A 5 5 0 0 1 173 54.5 V 42 A 5 5 0 0 1 178 37 Z" id="svg_4" fill="#7159C1"/>
  <path id="svg_5" fill="white" d="m184.147,50.0474l-1.272,0l-0.475,2.7026l-1.206,0l0.474,-2.7026l-1.496,0l0,-1.1338l1.694,0l0.33,-1.8721l-1.53,0l0,-1.147l1.734,0l0.481,-2.7422l1.2,0l-0.481,2.7422l1.278,0l0.482,-2.7422l1.206,0l-0.481,2.7422l1.443,0l0,1.147l-1.648,0l-0.329,1.8721l1.476,0l0,1.1338l-1.674,0l-0.475,2.7026l-1.206,0l0.475,-2.7026zm-1.075,-1.1338l1.272,0l0.33,-1.8721l-1.279,0l-0.323,1.8721z"/>
  <path stroke="null" style="vector-effect: non-scaling-stroke;" id="svg_6" fill="white" d="m194.905,48.7817c0,1.3272 -0.275,2.3423 -0.824,3.0454c-0.549,0.7031 -1.354,1.0547 -2.413,1.0547c-1.046,0 -1.846,-0.3449 -2.399,-1.0349c-0.554,-0.6899 -0.838,-1.6787 -0.851,-2.9663l0,-1.7666c0,-1.3403 0.277,-2.3577 0.831,-3.052c0.558,-0.6943 1.36,-1.0415 2.406,-1.0415c1.046,0 1.845,0.345 2.399,1.0349c0.554,0.6856 0.837,1.6721 0.851,2.9597l0,1.7666zm-1.905,-1.9379c0,-0.7955 -0.11,-1.3733 -0.33,-1.7337c-0.215,-0.3647 -0.554,-0.5471 -1.015,-0.5471c-0.448,0 -0.78,0.1736 -0.996,0.5207c-0.211,0.3428 -0.323,0.8811 -0.336,1.615l0,2.3335c0,0.7823 0.106,1.3645 0.317,1.7469c0.215,0.3779 0.558,0.5668 1.028,0.5668c0.466,0 0.802,-0.1823 1.009,-0.5471c0.206,-0.3647 0.314,-0.9228 0.323,-1.6743l0,-2.2807z"/>
  <path d="M 212.18165588378906 49.657569885253906 C 210.3149871826172 49.657569885253906 208.98165893554688 49.13090515136719 208.18165588378906 48.077571868896484 C 207.38832092285156 47.03090286254883 206.9916534423828 45.487571716308594 206.9916534423828 43.44757080078125 L 209.9916534423828 43.44757080078125 L 209.9916534423828 43.917572021484375 C 209.9916534423828 44.317569732666016 210.00498962402344 44.66423797607422 210.03164672851562 44.95757293701172 C 210.05831909179688 45.25090408325195 210.1116485595703 45.5509033203125 210.191650390625 45.85757064819336 C 210.2783203125 46.16423797607422 210.3916473388672 46.41423797607422 210.53164672851562 46.60757064819336 C 210.67831420898438 46.8009033203125 210.87498474121094 46.95756912231445 211.1216583251953 47.077571868896484 C 211.37498474121094 47.20423889160156 211.67498779296875 47.26757049560547 212.0216522216797 47.26757049560547 C 212.29498291015625 47.26757049560547 212.54165649414062 47.23423767089844 212.76165771484375 47.167572021484375 C 212.98165893554688 47.10090255737305 213.17164611816406 47.01757049560547 213.33164978027344 46.917572021484375 C 213.4916534423828 46.82423782348633 213.63497924804688 46.68423843383789 213.76165771484375 46.4975700378418 C 213.88832092285156 46.31090545654297 213.9916534423828 46.137569427490234 214.0716552734375 45.977569580078125 C 214.1583251953125 45.817569732666016 214.2283172607422 45.59423828125 214.28164672851562 45.30757141113281 C 214.33499145507812 45.02757263183594 214.37498474121094 44.7909049987793 214.4016571044922 44.597572326660156 C 214.42831420898438 44.41090393066406 214.4483184814453 44.14423751831055 214.46165466308594 43.797569274902344 C 214.48165893554688 43.444236755371094 214.4916534423828 43.17423629760742 214.4916534423828 42.987571716308594 C 214.4916534423828 42.79423904418945 214.4916534423828 42.507572174072266 214.4916534423828 42.12757110595703 C 214.4916534423828 41.95423889160156 214.4916534423828 41.82423782348633 214.4916534423828 41.737571716308594 C 214.4916534423828 41.40423583984375 214.48831176757812 41.11756896972656 214.48165893554688 40.87757110595703 C 214.46832275390625 40.637569427490234 214.4449920654297 40.37757110595703 214.41165161132812 40.097572326660156 C 214.37831115722656 39.82423782348633 214.33164978027344 39.59423828125 214.2716522216797 39.407569885253906 C 214.20498657226562 39.22090530395508 214.11831665039062 39.03090286254883 214.01165771484375 38.83757019042969 C 213.8983154296875 38.650901794433594 213.76498413085938 38.50423812866211 213.6116485595703 38.3975715637207 C 213.45164489746094 38.2909049987793 213.25831604003906 38.20423889160156 213.03164672851562 38.137569427490234 C 212.79832458496094 38.07090377807617 212.53831481933594 38.03757095336914 212.25164794921875 38.03757095336914 C 211.71832275390625 38.03757095336914 211.25831604003906 38.20757293701172 210.8716583251953 38.547569274902344 C 210.4783172607422 38.89423751831055 210.191650390625 39.3009033203125 210.01165771484375 39.76757049560547 L 207.46165466308594 39.76757049560547 L 207.46165466308594 28.44757080078125 L 216.7416534423828 28.44757080078125 L 216.7416534423828 31.44757080078125 L 210.18165588378906 31.44757080078125 L 209.9916534423828 36.53757095336914 C 210.83164978027344 36.03757095336914 211.83164978027344 35.78757095336914 212.9916534423828 35.78757095336914 C 213.67164611816406 35.78757095336914 214.2716522216797 35.89090347290039 214.79165649414062 36.097572326660156 C 215.3116455078125 36.304237365722656 215.73831176757812 36.58757019042969 216.0716552734375 36.94757080078125 C 216.4049835205078 37.30757141113281 216.68165588378906 37.75090408325195 216.9016571044922 38.27757263183594 C 217.114990234375 38.81090545654297 217.26498413085938 39.374237060546875 217.35165405273438 39.96757125854492 C 217.4449920654297 40.56090545654297 217.4916534423828 41.22090530395508 217.4916534423828 41.94757080078125 C 217.4916534423828 42.847572326660156 217.4449920654297 43.66090393066406 217.35165405273438 44.387569427490234 C 217.25831604003906 45.11423873901367 217.08831787109375 45.81423568725586 216.84164428710938 46.487571716308594 C 216.60165405273438 47.15423583984375 216.2849884033203 47.714237213134766 215.8916473388672 48.167572021484375 C 215.50498962402344 48.62090301513672 214.99832153320312 48.98423767089844 214.3716583251953 49.257572174072266 C 213.73831176757812 49.52423858642578 213.00831604003906 49.657569885253906 212.18165588378906 49.657569885253906 Z" transform="matrix(0.625731348991394, 0, 0, 0.597606897354126, 67.28648376464844, 22.8232364654541)" style="white-space: pre; stroke-width: 0; fill: rgb(255, 255, 255); -webkit-text-stroke: 0px; color: rgb(255, 255, 255);"/>
 </g></g></svg>